<?xml version="1.0" encoding="iso-8859-1"?>
<!-- Generator: Adobe Illustrator 19.0.0, SVG Export Plug-In . SVG Version: 6.00 Build 0)  -->
<svg version="1.1" id="Capa_1" xmlns="http://www.w3.org/2000/svg" xmlns:xlink="http://www.w3.org/1999/xlink" x="0px" y="0px"
	 viewBox="0 0 512 512" style="enable-background:new 0 0 512 512;" xml:space="preserve">
<linearGradient id="SVGID_1_" gradientUnits="userSpaceOnUse" x1="0.5955" y1="257.2285" x2="512.5959" y2="257.2285" gradientTransform="matrix(0.9981 0 0 -0.9981 -0.0955 512.7271)">
	<stop  offset="0" style="stop-color:#00F2FE"/>
	<stop  offset="0.021" style="stop-color:#03EFFE"/>
	<stop  offset="0.293" style="stop-color:#24D2FE"/>
	<stop  offset="0.554" style="stop-color:#3CBDFE"/>
	<stop  offset="0.796" style="stop-color:#4AB0FE"/>
	<stop  offset="1" style="stop-color:#4FACFE"/>
</linearGradient>
<path style="fill:url(#SVGID_1_);" d="M387.743,510.974c-15.334,0-30.669-5.838-42.344-17.511l-74.576-74.645
	c-7.792-7.799-7.786-20.438,0.013-28.229c7.798-7.793,20.438-7.787,28.229,0.013l74.57,74.638
	c7.775,7.776,20.439,7.777,28.222-0.006c0.029-0.029,0.059-0.058,0.088-0.087l75.568-74.638c7.844-7.747,20.481-7.669,28.229,0.175
	c7.747,7.843,7.669,20.481-0.175,28.229l-75.53,74.6C418.369,505.154,403.057,510.974,387.743,510.974z M407.704,390.737V19.961
	C407.704,8.937,398.768,0,387.743,0c-11.024,0-19.961,8.937-19.961,19.961v370.776c0,11.024,8.937,19.961,19.961,19.961
	C398.768,410.698,407.704,401.761,407.704,390.737z M179.15,492.039v-19.961c0-11.024-8.937-19.961-19.961-19.961
	c-11.024,0-19.961,8.937-19.961,19.961h-76.56l114.944-140.039c4.897-5.966,5.916-14.221,2.616-21.198
	c-3.301-6.977-10.327-11.428-18.045-11.428H20.46c-11.024,0-19.961,8.937-19.961,19.961v19.963c0,11.024,8.937,19.961,19.961,19.961
	s19.961-8.937,19.961-19.961l79.555-0.002L5.032,479.375c-4.897,5.966-5.916,14.221-2.616,21.198
	C5.716,507.551,12.742,512,20.46,512h138.729C170.214,512,179.15,503.063,179.15,492.039z M182.145,90.823v101.801
	c0,11.024-8.937,19.961-19.961,19.961s-19.961-8.937-19.961-19.961v-40.92H40.421v40.92c0,11.024-8.937,19.961-19.961,19.961
	s-19.961-8.937-19.961-19.961V90.823C0.499,40.742,41.242,0,91.322,0S182.145,40.742,182.145,90.823z M142.223,111.782V90.823
	c0-28.067-22.834-50.901-50.901-50.901S40.421,62.755,40.421,90.823v20.959H142.223z"/>
<g>
</g>
<g>
</g>
<g>
</g>
<g>
</g>
<g>
</g>
<g>
</g>
<g>
</g>
<g>
</g>
<g>
</g>
<g>
</g>
<g>
</g>
<g>
</g>
<g>
</g>
<g>
</g>
<g>
</g>
</svg>
